<svg xmlns="http://www.w3.org/2000/svg" viewBox="0 0 100 100" width="512" height="512">
  <defs>
    <linearGradient id="bgGrad" x1="0%" y1="0%" x2="100%" y2="100%">
      <stop offset="0%" stop-color="#FF512F" />
      <stop offset="100%" stop-color="#F09819" />
    </linearGradient>

    <filter id="dropShadow" x="-20%" y="-20%" width="140%" height="140%">
      <feDropShadow dx="0" dy="3" stdDeviation="3" flood-color="#B33A1F" flood-opacity="0.4"/>
    </filter>
  </defs>

  <rect x="4" y="4" width="92" height="92" rx="20" fill="url(#bgGrad)" />

  <g filter="url(#dropShadow)" fill="#FFFFFF">
    <path d="M 48.5 18 L 51.5 18 L 50.5 12 L 49.5 12 Z" />
    <path d="M 18 48
             A 32 32 0 0 1 82 48
             A 10.66 10.66 0 0 1 60.66 48
             A 10.66 10.66 0 0 1 39.33 48
             A 10.66 10.66 0 0 1 18 48 Z" />
    <path d="M 48 68
             L 52 68
             L 52 46
             C 44 51 44 62 48 68 Z" />
    <rect x="45.5" y="68" width="9" height="18" rx="2.5" />
  </g>

  <g fill="#FF512F">
    <circle cx="50" cy="71.5" r="1.3" />
    <circle cx="50" cy="77" r="1.3" />
    <circle cx="50" cy="82.5" r="1.3" />
  </g>
</svg>
